# xmcd
#
# Track frame offsets: 
#        150
#        18843
#        38246
#        56249
#        73326
#        94290
#        119280
#        137868
#        153733
#        172837
#        202251
#        218659
#        234419
#        252931
#        267277
#
# Disc length: 3896 seconds
#
# Revision: 1
# Processed by: cddbd v1.5.2PL0 Copyright (c) Steve Scherf et al.
# Submitted via: ExactAudioCopy v0.99pb4
#
DISCID=e00f360f
DTITLE=love77 - Oceam in my heart
DYEAR=2003
DGENRE=A Cappella
TTITLE0=Tears 眼泪
TTITLE1=The Way We Were 曾经拥有
TTITLE2=I don't Know How To Love Him 不知如何爱他
TTITLE3=Always On My Mind 萦绕于心
TTITLE4=You And Me 你我之间
TTITLE5=Beethoven's For Elese 致爱丽丝
TTITLE6=Legends Of the Goddess 天使情人
TTITLE7=Love Story 爱的故事
TTITLE8=Melody Fair 音乐盛宴
TTITLE9=I Miss You 思念
TTITLE10=Hello 问候
TTITLE11=Voyage A Vniice 威尼斯航行
TTITLE12=How Deep Is Your Love 爱有多深
TTITLE13=Autumn Leaves 秋叶
TTITLE14=Beautiful Lady 美丽女子
EXTD=
EXTT0=
EXTT1=
EXTT2=
EXTT3=
EXTT4=
EXTT5=
EXTT6=
EXTT7=
EXTT8=
EXTT9=
EXTT10=
EXTT11=
EXTT12=
EXTT13=
EXTT14=
PLAYORDER=
